<svg width="26" height="14" fill="none" xmlns="http://www.w3.org/2000/svg"><path d="M25.862 12.643a1.654 1.654 0 0 0-.088-.16c-.451-.766-1.313-1.707-2.586-2.823l-.026-.025-.014-.013-.014-.013h-.013c-.578-.52-.943-.869-1.096-1.048-.28-.34-.343-.685-.19-1.035.108-.264.514-.821 1.218-1.673.37-.451.663-.813.88-1.086 1.561-1.959 2.238-3.21 2.03-3.756l-.08-.127c-.054-.077-.194-.147-.42-.211-.226-.064-.514-.075-.866-.032l-3.899.025a.535.535 0 0 0-.27.007L20.25.71l-.068.032-.053.039a.59.59 0 0 0-.15.134.868.868 0 0 0-.134.223 20.36 20.36 0 0 1-1.45 2.875c-.333.528-.64.986-.92 1.373-.28.388-.514.673-.703.856-.19.183-.361.33-.515.44-.153.112-.27.158-.352.141a10.423 10.423 0 0 1-.23-.05.87.87 0 0 1-.305-.314 1.345 1.345 0 0 1-.155-.498 5.215 5.215 0 0 1-.048-.518c-.004-.144-.002-.349.007-.613.01-.264.014-.443.014-.536 0-.324.006-.675.02-1.054.014-.38.024-.68.034-.901.009-.222.013-.456.013-.703 0-.247-.016-.44-.047-.581a1.906 1.906 0 0 0-.142-.409.701.701 0 0 0-.277-.307 1.618 1.618 0 0 0-.454-.172C13.858.066 13.25.01 12.508.002 10.83-.015 9.751.087 9.273.309c-.19.093-.361.221-.514.383-.163.187-.185.29-.068.306.541.077.925.26 1.15.55l.082.153c.063.11.126.307.19.588.063.28.103.592.121.932a9.376 9.376 0 0 1 0 1.597c-.045.443-.088.788-.129 1.035-.04.247-.101.447-.182.6a2.495 2.495 0 0 1-.163.281.228.228 0 0 1-.067.064c-.118.043-.24.064-.366.064s-.28-.06-.46-.179a3.185 3.185 0 0 1-.562-.492 6.595 6.595 0 0 1-.657-.875 15.013 15.013 0 0 1-.758-1.328l-.216-.37c-.135-.24-.32-.586-.555-1.042a19.527 19.527 0 0 1-.623-1.323.85.85 0 0 0-.325-.408L5.104.806a.945.945 0 0 0-.217-.108 1.503 1.503 0 0 0-.311-.083L.866.64C.489.64.23.721.096.883L.04.96A.394.394 0 0 0 0 1.164c0 .094.027.209.081.345a41.17 41.17 0 0 0 1.767 3.475C2.484 6.1 3.037 7 3.506 7.68c.47.681.948 1.324 1.435 1.929.487.604.81.992.968 1.162.158.17.282.298.372.384l.339.306c.216.205.534.45.954.735.42.285.884.566 1.394.843a7.83 7.83 0 0 0 1.78.677 6.503 6.503 0 0 0 1.977.211h1.557c.316-.026.555-.12.717-.281l.054-.064c.036-.05.07-.13.101-.236.032-.107.048-.224.048-.351-.01-.367.02-.697.088-.99.067-.294.144-.516.23-.665.086-.149.183-.274.291-.377.108-.102.185-.163.23-.185a.891.891 0 0 1 .108-.045c.217-.068.472-.002.766.199.293.2.568.447.825.74.258.295.567.624.928.99.36.367.677.64.947.818l.27.154c.182.102.416.196.705.28.288.086.541.107.758.065l3.465-.051c.343 0 .61-.054.799-.16.19-.107.302-.224.338-.351a.934.934 0 0 0 .007-.435 1.534 1.534 0 0 0-.095-.338Z" fill="#fff" fill-opacity=".6"/></svg>